<svg width="26" height="18" viewBox="0 0 26 18" fill="none" xmlns="http://www.w3.org/2000/svg">
<path d="M15.9669 17.2C15.7669 17.0222 15.6615 16.7942 15.6509 16.516C15.6393 16.2387 15.7335 16 15.9335 15.8L21.7335 10H1.2002C0.911306 10 0.672639 9.90533 0.484195 9.716C0.294862 9.52756 0.200195 9.28889 0.200195 9C0.200195 8.71111 0.294862 8.472 0.484195 8.28267C0.672639 8.09422 0.911306 8 1.2002 8H21.7335L15.9335 2.2C15.7557 2.02222 15.6615 1.78889 15.6509 1.5C15.6393 1.21111 15.7335 0.977778 15.9335 0.8C16.1113 0.6 16.3446 0.5 16.6335 0.5C16.9224 0.5 17.1558 0.6 17.3335 0.8L24.7002 8.16667C24.8335 8.27778 24.9224 8.40533 24.9669 8.54933C25.0113 8.69422 25.0335 8.84444 25.0335 9C25.0335 9.15556 25.0113 9.30533 24.9669 9.44933C24.9224 9.59422 24.8335 9.73333 24.7002 9.86667L17.3335 17.2C17.1558 17.4 16.9282 17.5 16.6509 17.5C16.3726 17.5 16.1446 17.4 15.9669 17.2Z" fill="white"/>
</svg>
