<svg width="24" height="24" viewBox="0 0 24 24" fill="none" xmlns="http://www.w3.org/2000/svg">
<path d="M7.075 18.4694L4.45 17.9194C4.23333 17.8694 4.05833 17.7488 3.925 17.5574C3.79167 17.3654 3.74167 17.1611 3.775 16.9444L4.025 14.2444L2.25 12.2194C2.08333 12.0528 2 11.8528 2 11.6194C2 11.3861 2.08333 11.1861 2.25 11.0194L4.025 8.99444L3.775 6.29444C3.74167 6.07778 3.79167 5.87344 3.925 5.68144C4.05833 5.49011 4.23333 5.36944 4.45 5.31944L7.075 4.76944L8.45 2.44444C8.58333 2.24444 8.754 2.11111 8.962 2.04444C9.17067 1.97778 9.375 1.98611 9.575 2.06944L12.05 3.11944L14.525 2.06944C14.725 1.98611 14.9293 1.97778 15.138 2.04444C15.346 2.11111 15.5167 2.24444 15.65 2.44444L17.025 4.76944L19.65 5.31944C19.8667 5.36944 20.0417 5.49011 20.175 5.68144C20.3083 5.87344 20.3583 6.07778 20.325 6.29444L20.075 8.99444L21.85 11.0194C22.0167 11.1861 22.1 11.3861 22.1 11.6194C22.1 11.8528 22.0167 12.0528 21.85 12.2194L20.075 14.2444L20.325 16.9444C20.3583 17.1611 20.3083 17.3654 20.175 17.5574C20.0417 17.7488 19.8667 17.8694 19.65 17.9194L17.025 18.4694L15.65 20.7944C15.5167 20.9944 15.346 21.1278 15.138 21.1944C14.9293 21.2611 14.725 21.2528 14.525 21.1694L12.05 20.1194L9.575 21.1694C9.375 21.2528 9.17067 21.2611 8.962 21.1944C8.754 21.1278 8.58333 20.9944 8.45 20.7944L7.075 18.4694ZM10.375 14.1944C10.5417 14.3611 10.75 14.4444 11 14.4444C11.25 14.4444 11.4583 14.3611 11.625 14.1944L15.775 10.0444C15.925 9.89444 16 9.71511 16 9.50644C16 9.29844 15.925 9.11944 15.775 8.96944C15.625 8.81944 15.45 8.74444 15.25 8.74444C15.05 8.74444 14.8667 8.81944 14.7 8.96944L11 12.6944L9.375 11.0694C9.225 10.9361 9.04567 10.8734 8.837 10.8814C8.629 10.8901 8.45833 10.9611 8.325 11.0944C8.175 11.2444 8.1 11.4194 8.1 11.6194C8.1 11.8194 8.175 11.9944 8.325 12.1444L10.375 14.1944Z" fill="#1EFF5D"/>
</svg>
