<svg width="25" height="24" viewBox="0 0 25 24" fill="none" xmlns="http://www.w3.org/2000/svg">
<path fill-rule="evenodd" clip-rule="evenodd" d="M3.91356 16.8669L2.5 22L7.7722 20.6169C9.22874 21.4059 10.8668 21.8242 12.5334 21.8242H12.5382C18.0301 21.8242 22.5 17.3802 22.5 11.9145C22.5048 9.26711 21.4685 6.77662 19.5869 4.90399C17.7101 3.03137 15.2077 2 12.543 2C7.05587 2 2.58596 6.44392 2.58596 11.9097C2.58118 13.654 3.03964 15.3603 3.91356 16.8669ZM8.32617 19.0057L8.02531 18.8251L4.89255 19.6426L5.72827 16.6055L5.53247 16.2918C4.70153 14.98 4.26695 13.4639 4.26695 11.9097C4.26695 7.36597 7.98233 3.673 12.543 3.67776C14.754 3.67776 16.8362 4.53327 18.3978 6.09221C19.9594 7.65114 20.819 9.71863 20.819 11.9192C20.819 16.4629 17.1036 20.1559 12.543 20.1559H12.5382C11.053 20.1511 9.59646 19.7567 8.32617 19.0057ZM9.49586 7.33757C9.67255 7.34233 9.86835 7.35183 10.0546 7.76533C10.1739 8.03127 10.3722 8.51461 10.5384 8.91972C10.6781 9.26034 10.7951 9.54566 10.8235 9.59993C10.8855 9.72351 10.9237 9.86609 10.8426 10.0324C10.833 10.0521 10.8239 10.0709 10.8152 10.089C10.7501 10.224 10.7037 10.3202 10.5942 10.4459C10.5494 10.4974 10.5027 10.5538 10.4562 10.6101C10.3738 10.7096 10.2919 10.8086 10.2217 10.8785C10.0976 11.002 9.96863 11.1351 10.1119 11.3823C10.2552 11.6294 10.7566 12.4421 11.4968 13.098C12.2926 13.8065 12.9846 14.105 13.3344 14.2559C13.4023 14.2852 13.4574 14.3089 13.4978 14.329C13.7461 14.4526 13.8941 14.4336 14.0374 14.2672C14.1807 14.1009 14.6582 13.5448 14.8254 13.2977C14.9877 13.0505 15.1549 13.0933 15.3841 13.1741C15.6133 13.2596 16.8359 13.8585 17.0842 13.9821C17.1331 14.0064 17.1789 14.0284 17.2214 14.0487C17.3943 14.1316 17.5119 14.188 17.5618 14.272C17.6238 14.3766 17.6238 14.8708 17.4185 15.4507C17.2084 16.0305 16.1912 16.5866 15.7375 16.6294C15.6941 16.6335 15.6509 16.6387 15.6065 16.6441C15.1863 16.6949 14.653 16.7594 12.7528 16.0115C10.4117 15.091 8.86617 12.8071 8.5534 12.3449C8.52867 12.3084 8.51164 12.2832 8.50254 12.271L8.49726 12.264C8.35508 12.0737 7.48535 10.91 7.48535 9.70925C7.48535 8.56055 8.05128 7.96249 8.30937 7.68975C8.32572 7.67246 8.34084 7.65649 8.3545 7.64176C8.58373 7.39461 8.85116 7.33282 9.0183 7.33282C9.18545 7.33282 9.35259 7.33282 9.49586 7.33757Z" fill="white"/>
</svg>
